<svg width="25" height="25" viewBox="0 0 25 25" fill="none" xmlns="http://www.w3.org/2000/svg">
<path d="M12.5 25C19.4036 25 25 19.4036 25 12.5C25 5.59644 19.4036 0 12.5 0C5.59644 0 0 5.59644 0 12.5C0 19.4036 5.59644 25 12.5 25Z" fill="#286CAB"/>
<path d="M19.2773 12.5L14.4642 12.4158L5.40825 13.468L16.3388 24.3985C19.836 23.271 22.6599 20.6451 24.054 17.2767L19.2773 12.5Z" fill="#286CAB"/>
<path d="M14.6644 7.88712L13.2954 9.25616L15.5712 11.532H5.40825V13.468H15.5712L13.2954 15.7439L14.6644 17.1129L19.2773 12.5L14.6644 7.88712Z" fill="white"/>
<path d="M5.40825 13.468H15.5712L13.2954 15.7438L14.6644 17.1129L19.2773 12.5H5.40825V13.468Z" fill="white"/>
</svg>
